<svg width="30" height="30" viewBox="0 0 30 30" fill="none" xmlns="http://www.w3.org/2000/svg">
<g clip-path="url(#clip0_8_45)">
<path d="M29.5898 25.9395L23.748 20.0977C23.4844 19.834 23.127 19.6875 22.752 19.6875L21.7969 19.6875C23.4141 17.6191 24.375 15.0176 24.375 12.1875C24.375 5.45508 18.9199 9.81918e-08 12.1875 6.32514e-08C5.45508 2.83111e-08 -2.83111e-08 5.45508 -6.32514e-08 12.1875C-9.81918e-08 18.9199 5.45508 24.375 12.1875 24.375C15.0176 24.375 17.6191 23.4141 19.6875 21.7969L19.6875 22.752C19.6875 23.127 19.834 23.4844 20.0977 23.748L25.9395 29.5898C26.4902 30.1406 27.3809 30.1406 27.9258 29.5898L29.584 27.9316C30.1348 27.3809 30.1348 26.4902 29.5898 25.9395ZM12.1875 19.6875C8.04492 19.6875 4.6875 16.3359 4.6875 12.1875C4.6875 8.04492 8.03906 4.6875 12.1875 4.6875C16.3301 4.6875 19.6875 8.03906 19.6875 12.1875C19.6875 16.3301 16.3359 19.6875 12.1875 19.6875Z" fill="black"/>
</g>
<defs>
<clipPath id="clip0_8_45">
<rect width="30" height="30" fill="white"/>
</clipPath>
</defs>
</svg>
