<svg width="248" height="59" viewBox="0 0 248 59" fill="none" xmlns="http://www.w3.org/2000/svg">
<circle cx="29.5" cy="29.5" r="28.25" fill="#D9D9D9" fill-opacity="0.1" stroke="white" stroke-width="1.5"/>
<circle cx="92.5" cy="29.5" r="28.25" fill="#D9D9D9" fill-opacity="0.1" stroke="white" stroke-width="1.5"/>
<circle cx="155.5" cy="29.5" r="28.25" fill="#D9D9D9" fill-opacity="0.1" stroke="white" stroke-width="1.5"/>
<circle cx="218.5" cy="29.5" r="28.25" fill="#D9D9D9" fill-opacity="0.1" stroke="white" stroke-width="1.5"/>
<g clip-path="url(#clip0_8_30)">
<path d="M103.43 26.408C103.446 26.6301 103.446 26.8522 103.446 27.0743C103.446 33.8477 98.2906 41.6523 88.868 41.6523C85.9651 41.6523 83.2684 40.8115 81 39.3522C81.4125 39.3998 81.809 39.4156 82.2373 39.4156C84.6326 39.4156 86.8375 38.6067 88.5983 37.2266C86.3458 37.179 84.4581 35.7037 83.8077 33.6733C84.125 33.7208 84.4422 33.7526 84.7754 33.7526C85.2354 33.7526 85.6955 33.6891 86.1237 33.5781C83.776 33.1022 82.0152 31.04 82.0152 28.5495L82.0152 28.4861C82.6973 28.8668 83.4905 29.1048 84.3312 29.1364C82.9511 28.2164 82.0469 26.646 82.0469 24.8693C82.0469 23.9176 82.3007 23.0451 82.7449 22.2837C85.2671 25.3928 89.0583 27.4232 93.3096 27.6453C93.2303 27.2646 93.1827 26.8681 93.1827 26.4715C93.1827 23.6479 95.4669 21.3478 98.3064 21.3478C99.7816 21.3478 101.114 21.9664 102.05 22.9658C103.208 22.7437 104.318 22.3154 105.302 21.7285C104.921 22.9182 104.112 23.9176 103.049 24.5521C104.081 24.4411 105.08 24.1555 106 23.759C105.302 24.7741 104.43 25.6783 103.43 26.408Z" fill="#F7F7F7"/>
</g>
<g clip-path="url(#clip1_8_30)">
<path d="M149.459 40.875L144.924 40.875L144.924 26.2705L149.459 26.2705L149.459 40.875ZM147.189 24.2784C145.739 24.2784 144.562 23.0772 144.562 21.627C144.563 20.9304 144.839 20.2624 145.332 19.7698C145.824 19.2772 146.492 19.0005 147.189 19.0005C147.886 19.0005 148.554 19.2772 149.046 19.7698C149.539 20.2624 149.815 20.9304 149.815 21.627C149.815 23.0772 148.639 24.2784 147.189 24.2784ZM166.433 40.875L161.907 40.875L161.907 33.7657C161.907 32.0713 161.873 29.8985 159.549 29.8985C157.191 29.8985 156.83 31.7393 156.83 33.6436L156.83 40.875L152.3 40.875L152.3 26.2705L156.649 26.2705L156.649 28.2627L156.713 28.2627C157.318 27.1153 158.797 25.9043 161.004 25.9043C165.594 25.9043 166.437 28.9268 166.437 32.8526L166.437 40.875L166.433 40.875Z" fill="#F7F7F7"/>
</g>
<path d="M218.505 25.8848C215.399 25.8848 212.895 28.3897 212.895 31.4951C212.895 34.6006 215.399 37.1055 218.505 37.1055C221.61 37.1055 224.115 34.6006 224.115 31.4951C224.115 28.3897 221.61 25.8848 218.505 25.8848ZM218.505 35.1426C216.498 35.1426 214.857 33.5069 214.857 31.4951C214.857 29.4834 216.493 27.8477 218.505 27.8477C220.517 27.8477 222.152 29.4834 222.152 31.4951C222.152 33.5069 220.512 35.1426 218.505 35.1426ZM225.653 25.6553C225.653 26.3828 225.067 26.9639 224.345 26.9639C223.617 26.9639 223.036 26.378 223.036 25.6553C223.036 24.9326 223.622 24.3467 224.345 24.3467C225.067 24.3467 225.653 24.9326 225.653 25.6553ZM229.369 26.9834C229.286 25.2305 228.886 23.6778 227.602 22.3985C226.322 21.1192 224.77 20.7188 223.017 20.6309C221.21 20.5284 215.795 20.5284 213.988 20.6309C212.24 20.7139 210.687 21.1143 209.403 22.3936C208.119 23.6729 207.724 25.2256 207.636 26.9785C207.533 28.7852 207.533 34.2002 207.636 36.0069C207.719 37.7598 208.119 39.3125 209.403 40.5918C210.687 41.8711 212.235 42.2715 213.988 42.3594C215.795 42.4619 221.21 42.4619 223.017 42.3594C224.77 42.2764 226.322 41.876 227.602 40.5918C228.881 39.3125 229.281 37.7598 229.369 36.0069C229.472 34.2002 229.472 28.7901 229.369 26.9834ZM227.035 37.9453C226.654 38.9024 225.917 39.6397 224.955 40.0254C223.515 40.5967 220.097 40.4649 218.505 40.4649C216.913 40.4649 213.49 40.5918 212.055 40.0254C211.098 39.6446 210.36 38.9073 209.975 37.9453C209.403 36.5049 209.535 33.0869 209.535 31.4951C209.535 29.9034 209.408 26.4805 209.975 25.045C210.355 24.0879 211.093 23.3506 212.055 22.9649C213.495 22.3936 216.913 22.5254 218.505 22.5254C220.097 22.5254 223.52 22.3985 224.955 22.9649C225.912 23.3457 226.649 24.083 227.035 25.045C227.606 26.4854 227.475 29.9034 227.475 31.4951C227.475 33.0869 227.606 36.5098 227.035 37.9453Z" fill="#F7F7F7"/>
<g clip-path="url(#clip2_8_30)">
<path d="M34.5122 33.0625L35.2065 28.5381L30.8652 28.5381L30.8652 25.6021C30.8652 24.3643 31.4717 23.1577 33.416 23.1577L35.3896 23.1577L35.3896 19.3057C35.3896 19.3057 33.5986 19 31.8862 19C28.311 19 25.9741 21.167 25.9741 25.0899L25.9741 28.5381L22 28.5381L22 33.0625L25.9741 33.0625L25.9741 44L30.8652 44L30.8652 33.0625L34.5122 33.0625Z" fill="#F7F7F7"/>
</g>
<defs>
<clipPath id="clip0_8_30">
<rect width="25" height="25" fill="white" transform="translate(80 17)"/>
</clipPath>
<clipPath id="clip1_8_30">
<rect width="25" height="25" fill="white" transform="translate(143 19)"/>
</clipPath>
<clipPath id="clip2_8_30">
<rect width="25" height="25" fill="white" transform="translate(13 19)"/>
</clipPath>
</defs>
</svg>
