<svg width="25" height="25" viewBox="0 0 25 25" fill="none" xmlns="http://www.w3.org/2000/svg">
<g clip-path="url(#clip0_8_22)">
<path d="M6.45898 21.875L1.92383 21.875L1.92383 7.27054L6.45898 7.27054L6.45898 21.875ZM4.18896 5.27835C2.73877 5.27835 1.5625 4.07718 1.5625 2.62698C1.5625 1.9304 1.83922 1.26235 2.33177 0.769793C2.82433 0.277235 3.49238 0.000518809 4.18896 0.000518812C4.88555 0.000518816 5.5536 0.277235 6.04616 0.769793C6.53871 1.26235 6.81543 1.9304 6.81543 2.62698C6.81543 4.07718 5.63867 5.27835 4.18896 5.27835ZM23.4326 21.875L18.9072 21.875L18.9072 14.7657C18.9072 13.0713 18.873 10.8985 16.5493 10.8985C14.1914 10.8985 13.8301 12.7393 13.8301 14.6436L13.8301 21.875L9.2998 21.875L9.2998 7.27054L13.6494 7.27054L13.6494 9.26273L13.7129 9.26273C14.3184 8.11527 15.7974 6.90433 18.0039 6.90433C22.5938 6.90433 23.4375 9.92679 23.4375 13.8526L23.4375 21.875L23.4326 21.875Z" fill="#F7F7F7"/>
</g>
<defs>
<clipPath id="clip0_8_22">
<rect width="25" height="25" fill="white"/>
</clipPath>
</defs>
</svg>
