<svg width="25" height="25" viewBox="0 0 25 25" fill="none" xmlns="http://www.w3.org/2000/svg">
<g clip-path="url(#clip0_8_26)">
<path d="M23.4302 9.40803C23.446 9.6301 23.446 9.85222 23.446 10.0743C23.446 16.8477 18.2906 24.6523 8.86802 24.6523C5.96509 24.6523 3.26841 23.8115 1 22.3522C1.41245 22.3998 1.80898 22.4156 2.2373 22.4156C4.63257 22.4156 6.83755 21.6067 8.59834 20.2266C6.3458 20.179 4.45811 18.7037 3.80771 16.6733C4.125 16.7208 4.44224 16.7526 4.77539 16.7526C5.2354 16.7526 5.69546 16.6891 6.12373 16.5781C3.77603 16.1022 2.01519 14.04 2.01519 11.5495L2.01519 11.4861C2.69727 11.8668 3.49048 12.1048 4.33115 12.1364C2.95107 11.2164 2.04692 9.64597 2.04692 7.86931C2.04692 6.91755 2.30068 6.04509 2.74487 5.28367C5.26709 8.3928 9.05835 10.4232 13.3096 10.6453C13.2303 10.2646 13.1827 9.86809 13.1827 9.47151C13.1827 6.64788 15.4669 4.34778 18.3064 4.34778C19.7816 4.34778 21.1141 4.96643 22.05 5.9658C23.208 5.74373 24.3184 5.31541 25.302 4.72849C24.9212 5.91824 24.1122 6.9176 23.0494 7.55208C24.0805 7.44109 25.0799 7.15549 25.9999 6.75896C25.3021 7.77415 24.4295 8.6783 23.4302 9.40803V9.40803Z" fill="#F7F7F7"/>
</g>
<defs>
<clipPath id="clip0_8_26">
<rect width="25" height="25" fill="white"/>
</clipPath>
</defs>
</svg>
